# xmcd CD database file
# Generated: Sun Apr  6 21:23:58 2003 by WSPse's MP3c
#
# Track frame offsets:
#       182
#       19595
#       39420
#       65620
#       84332
#       106555
#       129762
#       151182
#       169082
#       185380
#       209460
#       229707
#
# Disc length: 3382 seconds
#
# Revision: 3
# Processed by: cddbd v1.4PL0 Copyright (c) Steve Scherf et al.
# Submitted via: MP3c 0.27
#   WSPse mp3c-0.27 (NLS) - ENGLISH (Nov  6 2002)
#
DISCID=860d340c
DTITLE=Manzanita - Por Tu Ausencia
DYEAR=1900
DGENRE=
TTITLE0=Por Tu Ausencia
TTITLE1=La Quiero A Morir
TTITLE2=Ramito De Violetas
TTITLE3=No Me Lo Creo
TTITLE4=Para Que Vuelvas
TTITLE5=Margarita
TTITLE6=Por Qué Me Amas|El Que No Llora No Ama (Me Ama Mo)
TTITLE7=Verde
TTITLE8=Dento De Tu Alma
TTITLE9=Gitana
TTITLE10=Que Será De Mí
TTITLE11=Il Mio Canto Libero
EXTD=
EXTT0=
EXTT1=
EXTT2=
EXTT3=
EXTT4=
EXTT5=
EXTT6=
EXTT7=
EXTT8=
EXTT9=
EXTT10=
EXTT11=
PLAYORDER=
